<?xml version="1.0" encoding="UTF-8" standalone="no"?>
<!-- Created with Inkscape (http://www.inkscape.org/) -->

<svg
   width="2850"
   height="1000"
   viewBox="0 0 754.06248 264.58333"
   version="1.1"
   id="svg1"
   inkscape:version="1.3.2 (091e20e, 2023-11-25)"
   sodipodi:docname="vellvm-logo.svg"
   xml:space="preserve"
   inkscape:export-filename="VellvmLogoCircuit3.png"
   inkscape:export-xdpi="96"
   inkscape:export-ydpi="96"
   xmlns:inkscape="http://www.inkscape.org/namespaces/inkscape"
   xmlns:sodipodi="http://sodipodi.sourceforge.net/DTD/sodipodi-0.dtd"
   xmlns="http://www.w3.org/2000/svg"
   xmlns:svg="http://www.w3.org/2000/svg"><sodipodi:namedview
     id="namedview1"
     pagecolor="#ffffff"
     bordercolor="#000000"
     borderopacity="0.25"
     inkscape:showpageshadow="2"
     inkscape:pageopacity="0.0"
     inkscape:pagecheckerboard="0"
     inkscape:deskcolor="#d1d1d1"
     inkscape:document-units="px"
     showgrid="false"
     inkscape:zoom="0.19417054"
     inkscape:cx="1501.2576"
     inkscape:cy="767.36667"
     inkscape:window-width="1728"
     inkscape:window-height="1051"
     inkscape:window-x="0"
     inkscape:window-y="38"
     inkscape:window-maximized="0"
     inkscape:current-layer="g4"
     showguides="false"><inkscape:grid
       id="grid1"
       units="px"
       originx="0"
       originy="0"
       spacingx="2.6458333"
       spacingy="2.6458333"
       empcolor="#0099e5"
       empopacity="0.30196078"
       color="#0099e5"
       opacity="0.14901961"
       empspacing="5"
       dotted="false"
       gridanglex="30"
       gridanglez="30"
       visible="false" /></sodipodi:namedview><defs
     id="defs1" /><g
     inkscape:groupmode="layer"
     id="layer9"
     inkscape:label="Base"
     style="display:none"><rect
       style="display:inline;opacity:1;fill:#c8a582;fill-opacity:1;stroke:none;stroke-width:0;stroke-linecap:butt;stroke-linejoin:round;stroke-dasharray:none"
       id="rect39"
       width="759.05249"
       height="263.96457"
       x="-3.7446864"
       y="1.7511356" /></g><g
     inkscape:label="ellvm"
     inkscape:groupmode="layer"
     id="layer1"
     style="display:inline"><path
       style="font-size:213.14px;font-family:'Kells SD';-inkscape-font-specification:'Kells SD, Normal';stroke:#000000;stroke-width:3.63378142;stroke-linecap:square;stroke-dasharray:none;stroke-opacity:1"
       d="m 570.63344,111.9733 q 5.96792,-0.63942 12.14898,-1.49198 5.3285,-0.85256 11.7227,-2.1314 6.3942,-1.49198 12.14898,-3.62338 l 0.42628,11.29642 q 2.77082,-1.27884 7.03362,-2.98396 4.2628,-1.70512 9.37816,-3.1971 5.11536,-1.70512 10.44386,-2.55768 5.54164,-0.85256 10.657,-0.63942 10.23072,0.63942 15.77236,3.62338 5.75478,2.98396 8.31246,8.09932 4.68908,-3.41024 11.50956,-6.3942 7.03362,-2.98396 14.70666,-4.2628 7.88618,-1.49198 15.77236,-0.63942 7.88618,0.85256 14.70666,5.11536 4.90222,3.1971 6.60734,9.5913 1.70512,6.18106 1.70512,14.28038 0,7.88618 -0.85256,17.26434 -0.63942,9.16502 -0.63942,18.75632 0,7.4599 -0.42628,14.70666 -0.21314,7.24676 0,13.21468 0.21314,5.75478 1.49198,9.37816 1.27884,3.62338 4.2628,3.83652 -7.4599,-0.42628 -12.57526,-0.21314 -5.11536,0 -8.31246,0.21314 -3.83652,0.21314 -6.18106,0.42628 0.85256,-2.77082 1.27884,-8.5256 0.42628,-5.96792 0.63942,-13.00154 0.21314,-7.24676 0.21314,-14.9198 0.21314,-7.88618 0.63942,-14.70666 0.85256,-15.34608 -1.0657,-25.15052 -1.70512,-9.80444 -5.54164,-15.34608 -3.83652,-5.54164 -9.37816,-7.24676 -5.54164,-1.91826 -12.14898,-1.27884 -7.4599,0.63942 -10.657,5.54164 -3.1971,4.68908 -4.47594,12.14898 -1.0657,7.24676 -0.85256,16.41178 0.21314,9.16502 0,18.54318 -0.21314,7.03362 -0.42628,15.13294 -0.21314,8.09932 0,14.9198 0.42628,6.82048 1.49198,11.50956 1.27884,4.68908 3.62338,5.11536 -6.18106,0.21314 -11.29642,0.21314 -5.11536,0 -8.73874,0 -4.2628,0 -7.4599,0.21314 0.85256,-1.70512 1.49198,-7.03362 0.63942,-5.54164 1.0657,-13.00154 0.42628,-7.4599 0.85256,-15.9855 0.42628,-8.5256 0.63942,-16.41178 0.21314,-17.90376 -2.98396,-28.13448 -2.98396,-10.44386 -8.31246,-14.9198 -5.3285,-4.68908 -12.14898,-4.47594 -6.82048,0 -13.64096,2.98396 -3.41024,1.70512 -4.90222,6.3942 -1.49198,4.68908 -1.91826,11.50956 -0.42628,6.82048 -0.42628,15.13294 0,8.31246 -0.21314,16.83806 0,3.62338 -0.21314,10.657 0,7.03362 0,14.49352 0.21314,7.24676 0.63942,13.42782 0.63942,6.18106 1.91826,7.88618 -9.37816,-0.63942 -16.62492,0 -4.04966,0.42628 -7.67304,0.85256 0.85256,-3.41024 1.27884,-9.5913 0.63942,-6.18106 0.85256,-13.8541 0.42628,-7.67304 0.63942,-15.9855 0.21314,-8.5256 0.42628,-16.62492 0.21314,-6.60734 0.21314,-12.7884 0.21314,-6.18106 0,-11.08328 -0.21314,-5.11536 -1.27884,-8.73874 -0.85256,-3.83652 -2.77082,-5.75478 -2.1314,-1.91826 -4.2628,-3.1971 -2.1314,-1.27884 -4.04966,-2.1314 -2.34454,-0.85256 -4.2628,-1.70512 z"
       id="path12"
       inkscape:export-filename="vellvm.png"
       inkscape:export-xdpi="96"
       inkscape:export-ydpi="96" /><path
       style="font-size:213.14px;font-family:'Kells SD';-inkscape-font-specification:'Kells SD, Normal';stroke:#000000;stroke-width:3.63378142;stroke-linecap:square;stroke-dasharray:none;stroke-opacity:1"
       d="m 443.38889,108.34992 q 5.54164,0 11.29642,-0.42628 4.90222,-0.21314 10.657,-0.63942 5.75478,-0.42628 10.87014,-1.0657 1.49198,7.03362 4.68908,15.9855 3.1971,8.73874 7.03362,18.33004 4.04966,9.37816 8.5256,18.75632 4.47594,9.37816 8.5256,17.69062 4.2628,8.09932 7.67304,14.49352 3.62338,6.18106 5.54164,9.37816 1.70512,-4.47594 4.68908,-11.29642 2.98396,-7.03362 6.18106,-15.13294 3.1971,-8.09932 6.3942,-16.41178 3.1971,-8.5256 5.54164,-15.77236 2.55768,-7.24676 3.83652,-12.7884 1.49198,-5.54164 0.85256,-7.67304 -0.63942,-2.77082 -2.1314,-4.90222 -1.27884,-2.1314 -2.98396,-3.62338 -1.49198,-1.70512 -3.1971,-2.98396 -1.70512,-1.49198 -2.98396,-2.98396 6.18106,0.42628 11.93584,0.63942 4.90222,0.21314 10.44386,0.21314 5.54164,0 9.80444,-0.63942 -0.85256,1.70512 -4.04966,8.95188 -3.1971,7.03362 -7.88618,17.0512 -4.47594,9.80444 -9.80444,21.52714 -5.11536,11.50956 -9.5913,22.16656 -4.47594,10.44386 -7.67304,18.75632 -3.1971,8.31246 -3.62338,11.7227 l 4.68908,5.11536 q -4.2628,0 -8.5256,0.21314 -3.62338,0.21314 -8.31246,0.42628 -4.47594,0.21314 -8.95188,0.63942 -2.55768,-3.62338 -6.60734,-11.29642 -3.83652,-7.88618 -8.73874,-17.69062 -4.68908,-9.80444 -9.80444,-20.67458 -4.90222,-10.87014 -9.37816,-20.46144 -4.47594,-9.80444 -8.09932,-17.26434 -3.62338,-7.4599 -5.3285,-10.657 -1.70512,-2.98396 -3.83652,-4.68908 -1.91826,-1.70512 -3.62338,-2.34454 -2.1314,-0.85256 -4.04966,-0.63942 z"
       id="path11" /><path
       style="font-size:213.14px;font-family:'Kells SD';-inkscape-font-specification:'Kells SD, Normal';stroke:#000000;stroke-width:4.04172308;stroke-linecap:square;stroke-dasharray:none;stroke-opacity:1"
       d="m 401.70288,45.665801 q 6.97334,-1.59577 13.10143,-3.723464 5.28284,-1.861732 10.56568,-3.989426 5.49415,-2.393656 8.66385,-4.787311 -1.05657,9.308661 -1.4792,19.415207 -0.21131,10.106546 -0.42262,21.276935 0,11.170393 0,23.670595 0,12.500203 -0.21132,26.862133 -0.21131,14.09597 -0.42262,27.66002 -0.21132,13.29809 -0.21132,25.00041 0.21132,11.43635 0.84526,20.47905 0.63394,9.0427 2.11313,14.6279 -4.22627,-0.26597 -7.60728,-0.26597 -3.1697,-0.26596 -6.12809,0 -2.74708,0 -5.70547,0.53193 -2.74707,0.26596 -6.12809,1.06384 1.4792,-2.92557 2.53576,-14.36193 1.05657,-11.70232 1.90183,-27.66002 0.84525,-16.22367 1.05656,-34.30906 0.42263,-18.35136 0.42263,-34.30907 0,-16.223665 -0.63394,-27.925981 -0.42263,-11.702313 -1.26788,-14.627892 -1.26788,-3.723464 -3.1697,-6.383082 -1.90182,-2.925579 -3.59233,-4.787311 -2.11314,-2.127694 -4.22627,-3.457503 z"
       id="path10" /><path
       style="font-size:213.14px;font-family:'Kells SD';-inkscape-font-specification:'Kells SD, Normal';stroke:#000000;stroke-width:4.04172308;stroke-linecap:square;stroke-dasharray:none;stroke-opacity:1"
       d="m 343.59175,45.665801 q 6.97335,-1.59577 13.10144,-3.723464 5.28284,-1.861732 10.56567,-3.989426 5.49415,-2.393656 8.66385,-4.787311 -1.05656,9.308661 -1.47919,19.415207 -0.21131,10.106546 -0.42263,21.276935 0,11.170393 0,23.670595 0,12.500203 -0.21131,26.862133 -0.21131,14.09597 -0.42263,27.66002 -0.21131,13.29809 -0.21131,25.00041 0.21131,11.43635 0.84525,20.47905 0.63394,9.0427 2.11314,14.6279 -4.22627,-0.26597 -7.60729,-0.26597 -3.1697,-0.26596 -6.12809,0 -2.74707,0 -5.70546,0.53193 -2.74708,0.26596 -6.12809,1.06384 1.47919,-2.92557 2.53576,-14.36193 1.05657,-11.70232 1.90182,-27.66002 0.84526,-16.22367 1.05657,-34.30906 0.42263,-18.35136 0.42263,-34.30907 0,-16.223665 -0.63394,-27.925981 -0.42263,-11.702313 -1.26789,-14.627892 -1.26788,-3.723464 -3.1697,-6.383082 -1.90182,-2.925579 -3.59233,-4.787311 -2.11313,-2.127694 -4.22627,-3.457503 z"
       id="path9" /><path
       style="font-size:213.14px;font-family:'Kells SD';-inkscape-font-specification:'Kells SD, Normal';stroke:#000000;stroke-width:3.63378743;stroke-linecap:square;stroke-dasharray:none;stroke-opacity:1"
       d="m 274.72912,107.07108 q 9.5913,-1.0657 17.90376,0.63942 8.5256,1.70512 14.9198,5.54164 6.60734,3.62338 10.87014,8.95188 4.2628,5.3285 5.54164,11.50956 l 17.26434,-1.70512 -1.91826,2.34454 -16.62492,0.21314 q 0,1.0657 -6.60734,1.70512 -6.60734,0.42628 -17.26434,0.85256 -10.657,0.42628 -24.08482,0.85256 -13.21468,0.21314 -26.85564,1.0657 -3.1971,12.36212 -2.34454,22.59284 1.0657,10.23072 4.68908,18.33004 3.83652,7.88618 9.80444,13.8541 5.96792,5.75478 12.57526,9.37816 6.82048,3.41024 13.64096,4.47594 7.03362,0.85256 12.57526,-0.85256 6.82048,-2.1314 10.23072,-5.96792 3.41024,-4.04966 5.11536,-8.09932 1.91826,-4.68908 2.1314,-10.01758 2.77082,1.27884 6.18106,2.1314 2.98396,0.85256 6.60734,1.49198 3.62338,0.63942 7.88618,0.42628 -4.2628,5.3285 -9.80444,10.01758 -4.90222,4.04966 -12.14898,8.09932 -7.03362,4.04966 -16.62492,6.18106 -18.33004,3.83652 -31.54472,2.1314 -13.21468,-1.91826 -21.95342,-7.67304 -8.5256,-5.75478 -13.00154,-14.70666 -4.2628,-8.95188 -4.90222,-19.39574 -1.0657,-13.21468 1.70512,-24.29796 2.77082,-11.29642 8.73874,-19.60888 6.18106,-8.5256 15.55922,-13.8541 9.37816,-5.3285 21.74028,-6.60734 z m -25.5768,29.20018 q 5.75478,-0.63942 14.06724,-0.85256 8.31246,-0.42628 16.19864,-0.63942 8.09932,-0.21314 13.8541,-0.63942 5.96792,-0.42628 6.60734,-1.27884 0.63942,-1.0657 0,-5.3285 -0.63942,-4.47594 -3.83652,-8.73874 -2.98396,-4.2628 -8.95188,-6.82048 -5.96792,-2.77082 -15.77236,-0.42628 -7.03362,1.70512 -11.50956,5.75478 -4.2628,4.04966 -6.60734,8.31246 -2.77082,5.11536 -4.04966,10.657 z"
       id="text1" /></g><g
     inkscape:label="V copy"
     inkscape:groupmode="layer"
     id="g4"
     style="display:inline"><path
       d="m 1.0685317,14.222859 q 12.2339363,0 24.9384083,-0.941072 Q 36.829268,12.811251 49.533741,11.870179 62.238213,10.929107 73.531077,9.5174989 76.824829,25.045187 83.88287,44.8077 q 7.05804,19.291976 15.527688,40.466097 8.940182,20.703583 18.821442,41.407173 9.88125,20.70358 18.82144,39.05448 9.41072,17.88037 16.9393,31.99645 7.99911,13.64555 12.23393,20.70359 3.76429,-9.88126 10.35179,-24.93841 6.58751,-15.52769 13.64555,-33.40806 7.05804,-17.88037 14.11608,-36.23127 7.05804,-18.82144 12.23393,-34.819665 5.64644,-15.998225 8.46965,-28.232161 3.29375,-12.233936 1.88215,-16.939296 -1.41161,-6.116968 -4.70536,-10.822329 -2.82322,-4.70536 -6.58751,-7.999112 -3.29375,-3.764288 -7.05804,-6.587504 -3.76429,-3.293752 -6.5875,-6.587504 13.64554,0.941072 26.35001,1.411608 10.82233,0.470536 23.05627,0.470536 12.23394,0 21.64466,-1.411608 -1.88215,3.764288 -8.94019,19.762512 -7.05804,15.527689 -17.40983,37.642881 -9.88126,21.644657 -21.64466,47.524142 -11.29286,25.40894 -21.17412,48.93574 -9.88125,23.05627 -16.93929,41.40717 -7.05804,18.3509 -7.99912,25.87948 l 10.3518,11.29286 q -9.41072,0 -18.82144,0.47054 -7.99912,0.47054 -18.35091,0.94107 -9.88126,0.47054 -19.76251,1.41161 -5.64643,-7.99911 -14.58662,-24.93841 Q 109.29181,205.26048 98.469486,183.61582 88.117694,161.97117 76.824829,137.97383 66.002501,113.97649 56.121245,92.802373 46.239989,71.157716 38.240877,54.688956 30.241764,38.220196 26.477476,31.162155 22.713188,24.574651 18.007828,20.810363 13.773004,17.046075 10.008716,15.634467 5.3033558,13.752323 1.0685317,14.222859 Z"
       id="text2"
       style="font-size:470.536px;font-family:'Kells SD';-inkscape-font-specification:'Kells SD, Normal';stroke:#000000;stroke-width:6.11617"
       inkscape:label="text3"
       transform="scale(0.95035209,1.0522416)"
       aria-label="V" /></g><g
     inkscape:groupmode="layer"
     id="layer8"
     inkscape:label="Knot 4"
     style="display:inline"><g
       id="g50"
       style="display:inline;stroke:#ffcc00"
       transform="matrix(0.84946909,-0.39377502,0.38414803,0.87126257,244.05114,-84.832662)"><path
         style="fill:none;stroke:#ffcc00;stroke-width:4.23333;stroke-linecap:butt;stroke-linejoin:miter;stroke-dasharray:none;stroke-opacity:1"
         d="m -240.32294,20.997826 -8.3179,7.82717 -0.0675,50.55 10.58333,10.583334 v 119.0625 l 10.47731,10.79927 -0.22812,40.23031"
         id="path34"
         sodipodi:nodetypes="ccccccc" /><path
         style="fill:none;stroke:#ffcc00;stroke-width:4.23333;stroke-linecap:butt;stroke-linejoin:miter;stroke-dasharray:none;stroke-opacity:1"
         d="m -229.65403,28.294658 -8.47097,8.679074 1e-5,37.109599 10.58333,10.583333 V 203.72916"
         id="path35"
         sodipodi:nodetypes="ccccc" /><circle
         style="fill:none;fill-opacity:1;stroke:#ffcc00;stroke-width:2.87721;stroke-linecap:square;stroke-dasharray:none"
         id="circle36"
         cx="-227.54166"
         cy="26.458332"
         r="3.8530638" /><circle
         style="fill:none;fill-opacity:1;stroke:#ffcc00;stroke-width:2.87721;stroke-linecap:square;stroke-dasharray:none"
         id="circle38"
         cx="-238.125"
         cy="18.520832"
         r="3.8530638" /><circle
         style="fill:none;fill-opacity:1;stroke:#ffcc00;stroke-width:2.87721;stroke-linecap:square;stroke-dasharray:none"
         id="circle39"
         cx="-227.54166"
         cy="42.333332"
         r="3.8530638" /><circle
         style="fill:#000000;fill-opacity:1;stroke:#ffcc00;stroke-width:2.87721;stroke-linecap:square;stroke-dasharray:none"
         id="circle40"
         cx="-227.54166"
         cy="71.4375"
         r="3.8530638" /><path
         style="fill:none;stroke:#ffcc00;stroke-width:4.23333;stroke-linecap:butt;stroke-linejoin:miter;stroke-dasharray:none;stroke-opacity:1"
         d="M -227.54166,44.979166 V 68.791665"
         id="path40" /><circle
         style="fill:none;fill-opacity:1;stroke:#ffcc00;stroke-width:2.87721;stroke-linecap:square;stroke-dasharray:none"
         id="circle41"
         cx="-227.54166"
         cy="206.375"
         r="3.8530638" /><circle
         style="fill:none;fill-opacity:1;stroke:#ffcc00;stroke-width:2.87721;stroke-linecap:square;stroke-dasharray:none"
         id="circle42"
         cx="-259.29166"
         cy="10.583333"
         r="3.8530638" /><path
         style="fill:none;stroke:#ffcc00;stroke-width:4.23333;stroke-linecap:butt;stroke-linejoin:miter;stroke-dasharray:none;stroke-opacity:1"
         d="m -259.29166,13.229166 v 74.08333 l 10.58334,10.583333 0.0675,100.499241 -10.65082,10.50326 -0.16159,56.83543"
         id="path42"
         sodipodi:nodetypes="cccccc" /><circle
         style="fill:none;fill-opacity:1;stroke:#ffcc00;stroke-width:2.87721;stroke-linecap:square;stroke-dasharray:none"
         id="circle43"
         cx="-259.29166"
         cy="100.54166"
         r="3.8530638" /><circle
         style="fill:none;fill-opacity:1;stroke:#ffcc00;stroke-width:2.87721;stroke-linecap:square;stroke-dasharray:none"
         id="circle44"
         cx="-259.29166"
         cy="195.79166"
         r="3.8530638" /><path
         style="fill:none;stroke:#ffcc00;stroke-width:4.23333;stroke-linecap:butt;stroke-linejoin:miter;stroke-dasharray:none;stroke-opacity:1"
         d="M -259.29166,193.14583 V 103.1875"
         id="path44" /><circle
         style="fill:none;fill-opacity:1;stroke:#ffcc00;stroke-width:2.87721;stroke-linecap:square;stroke-dasharray:none"
         id="circle46"
         cx="-248.70833"
         cy="230.1875"
         r="3.8530638" /><path
         style="fill:none;stroke:#ffcc00;stroke-width:4.23333;stroke-linecap:butt;stroke-linejoin:miter;stroke-dasharray:none;stroke-opacity:1"
         d="m -246.01758,216.73652 7.89259,8.15931 v 42.33333"
         id="path46"
         sodipodi:nodetypes="ccc" /><path
         style="fill:none;stroke:#ffcc00;stroke-width:4.23333;stroke-linecap:butt;stroke-linejoin:miter;stroke-dasharray:none;stroke-opacity:1"
         d="m -248.70833,232.83333 -0.14492,27.92844"
         id="path47"
         sodipodi:nodetypes="cc" /><circle
         style="fill:none;fill-opacity:1;stroke:#ffcc00;stroke-width:2.87721;stroke-linecap:square;stroke-dasharray:none"
         id="circle45"
         cx="-248.70833"
         cy="214.3125"
         r="3.8530638" /><circle
         style="fill:none;fill-opacity:1;stroke:#ffcc00;stroke-width:2.87721;stroke-linecap:square;stroke-dasharray:none"
         id="circle47"
         cx="-227.10321"
         cy="263.21579"
         r="3.8530638" /><circle
         style="fill:none;fill-opacity:1;stroke:#ffcc00;stroke-width:2.87721;stroke-linecap:square;stroke-dasharray:none"
         id="circle48"
         cx="-238.125"
         cy="271.3136"
         r="3.8530638" /><circle
         style="fill:none;fill-opacity:1;stroke:#ffcc00;stroke-width:2.87721;stroke-linecap:square;stroke-dasharray:none"
         id="circle49"
         cx="-259.29166"
         cy="269.875"
         r="3.8530638" /><circle
         style="fill:none;fill-opacity:1;stroke:#ffcc00;stroke-width:2.87721;stroke-linecap:square;stroke-dasharray:none"
         id="circle50"
         cx="-248.70833"
         cy="263.3761"
         r="3.8530638" /></g></g></svg>
