<?xml version="1.0" encoding="UTF-8" standalone="no"?>
<!-- Created with Inkscape (http://www.inkscape.org/) -->

<svg
   width="3600"
   height="1500"
   viewBox="0 0 952.49998 396.875"
   version="1.1"
   id="svg1"
   inkscape:version="1.3.2 (091e20e, 2023-11-25)"
   sodipodi:docname="vellvm-logo-scroll.svg"
   xml:space="preserve"
   inkscape:export-filename="VellvmLogoCircuit3.png"
   inkscape:export-xdpi="96"
   inkscape:export-ydpi="96"
   xmlns:inkscape="http://www.inkscape.org/namespaces/inkscape"
   xmlns:sodipodi="http://sodipodi.sourceforge.net/DTD/sodipodi-0.dtd"
   xmlns:xlink="http://www.w3.org/1999/xlink"
   xmlns="http://www.w3.org/2000/svg"
   xmlns:svg="http://www.w3.org/2000/svg"><sodipodi:namedview
     id="namedview1"
     pagecolor="#ffffff"
     bordercolor="#000000"
     borderopacity="0.25"
     inkscape:showpageshadow="2"
     inkscape:pageopacity="0.0"
     inkscape:pagecheckerboard="0"
     inkscape:deskcolor="#d1d1d1"
     inkscape:document-units="px"
     showgrid="false"
     inkscape:zoom="0.24133209"
     inkscape:cx="1920.59"
     inkscape:cy="1218.2383"
     inkscape:window-width="1728"
     inkscape:window-height="1051"
     inkscape:window-x="0"
     inkscape:window-y="38"
     inkscape:window-maximized="0"
     inkscape:current-layer="g4"
     showguides="false"><inkscape:grid
       id="grid1"
       units="px"
       originx="0"
       originy="0"
       spacingx="2.6458333"
       spacingy="2.6458333"
       empcolor="#0099e5"
       empopacity="0.30196078"
       color="#0099e5"
       opacity="0.14901961"
       empspacing="5"
       dotted="false"
       gridanglex="30"
       gridanglez="30"
       visible="false" /></sodipodi:namedview><defs
     id="defs1"><linearGradient
       id="linearGradient8"
       inkscape:collect="always"><stop
         style="stop-color:#62371b;stop-opacity:1;"
         offset="0"
         id="stop8" /><stop
         style="stop-color:#c18e60;stop-opacity:1;"
         offset="0.04662379"
         id="stop10" /><stop
         style="stop-color:#dfb88d;stop-opacity:1;"
         offset="0.2761254"
         id="stop13" /><stop
         style="stop-color:#fee2bb;stop-opacity:1;"
         offset="0.98151124"
         id="stop11" /><stop
         style="stop-color:#532f17;stop-opacity:1;"
         offset="1"
         id="stop9" /></linearGradient><linearGradient
       id="linearGradient6"
       inkscape:collect="always"><stop
         style="stop-color:#c18e60;stop-opacity:1;"
         offset="0"
         id="stop6" /><stop
         style="stop-color:#fee3bb;stop-opacity:1;"
         offset="1"
         id="stop7" /></linearGradient><linearGradient
       id="linearGradient42"
       inkscape:collect="always"><stop
         style="stop-color:#c18e60;stop-opacity:1;"
         offset="0"
         id="stop42" /><stop
         style="stop-color:#ffefe5;stop-opacity:1;"
         offset="1"
         id="stop43" /></linearGradient><inkscape:path-effect
       effect="fill_between_many"
       method="originald"
       linkedpaths="#path15,0,1"
       id="path-effect22"
       is_visible="true"
       lpeversion="0"
       join="true"
       close="true"
       autoreverse="true" /><inkscape:path-effect
       effect="fill_between_many"
       method="originald"
       linkedpaths="#path15,0,1"
       id="path-effect23"
       is_visible="true"
       lpeversion="0"
       join="true"
       close="true"
       autoreverse="true" /><inkscape:path-effect
       effect="fill_between_many"
       method="originald"
       linkedpaths="#path15,0,1"
       id="path-effect29"
       is_visible="true"
       lpeversion="0"
       join="true"
       close="true"
       autoreverse="true" /><inkscape:path-effect
       effect="fill_between_many"
       method="originald"
       linkedpaths="#path18-8,0,1|#path19-0,0,1|#path20-4,0,1|"
       id="path-effect41" /><linearGradient
       inkscape:collect="always"
       xlink:href="#linearGradient42"
       id="linearGradient43"
       x1="35.536337"
       y1="202.04639"
       x2="94.754281"
       y2="202.04639"
       gradientUnits="userSpaceOnUse" /><inkscape:path-effect
       effect="fill_between_many"
       method="originald"
       linkedpaths="#path20-2,0,1|#path37-9,0,1|#path38-9,0,1|#path32-3,0,1|"
       id="path-effect43" /><linearGradient
       inkscape:collect="always"
       xlink:href="#linearGradient6"
       id="linearGradient7"
       x1="853.40865"
       y1="204.14625"
       x2="912.6266"
       y2="204.14625"
       gradientUnits="userSpaceOnUse" /><linearGradient
       inkscape:collect="always"
       xlink:href="#linearGradient8"
       id="linearGradient9"
       x1="75.557371"
       y1="204.07599"
       x2="859.88372"
       y2="204.07599"
       gradientUnits="userSpaceOnUse" /></defs><g
     inkscape:groupmode="layer"
     id="layer6"
     inkscape:label="Shade3"
     style="fill:#ffccaa"><path
       inkscape:original-d="M 0,0"
       inkscape:path-effect="#path-effect43"
       d="M 75.557371,25.267104 853.80746,23.651629 859.88372,382.241 94.284472,384.50036 Z"
       id="path43"
       style="display:inline;fill:url(#linearGradient9);fill-opacity:1" /><path
       style="display:inline;fill:#ffccaa;stroke:#000000;stroke-width:1.5875;stroke-linecap:butt;stroke-linejoin:miter;stroke-dasharray:none;stroke-opacity:1;fill-opacity:1"
       d="M 75.557371,25.267104 853.80746,23.651629"
       id="path37-9"
       sodipodi:nodetypes="cc" /><path
       style="display:inline;fill:#ffccaa;stroke:#000000;stroke-width:1.5875;stroke-linecap:butt;stroke-linejoin:miter;stroke-dasharray:none;stroke-opacity:1"
       d="M 94.284472,384.50036 859.88372,382.241"
       id="path38-9"
       sodipodi:nodetypes="cc" /></g><g
     inkscape:label="ellvm"
     inkscape:groupmode="layer"
     id="layer1"
     style="display:inline"><path
       style="font-size:213.14px;font-family:'Kells SD';-inkscape-font-specification:'Kells SD, Normal';stroke:#000000;stroke-width:3.63378;stroke-linecap:square;stroke-dasharray:none;stroke-opacity:1"
       d="m 668.07808,195.57685 q 5.96792,-0.63942 12.14898,-1.49198 5.3285,-0.85256 11.7227,-2.1314 6.3942,-1.49198 12.14898,-3.62338 l 0.42628,11.29642 q 2.77082,-1.27884 7.03362,-2.98396 4.2628,-1.70512 9.37816,-3.1971 5.11536,-1.70512 10.44386,-2.55768 5.54164,-0.85256 10.657,-0.63942 10.23072,0.63942 15.77236,3.62338 5.75478,2.98396 8.31246,8.09932 4.68908,-3.41024 11.50956,-6.3942 7.03362,-2.98396 14.70666,-4.2628 7.88618,-1.49198 15.77236,-0.63942 7.88618,0.85256 14.70666,5.11536 4.90222,3.1971 6.60734,9.5913 1.70512,6.18106 1.70512,14.28038 0,7.88618 -0.85256,17.26434 -0.63942,9.16502 -0.63942,18.75632 0,7.4599 -0.42628,14.70666 -0.21314,7.24676 0,13.21468 0.21314,5.75478 1.49198,9.37816 1.27884,3.62338 4.2628,3.83652 -7.4599,-0.42628 -12.57526,-0.21314 -5.11536,0 -8.31246,0.21314 -3.83652,0.21314 -6.18106,0.42628 0.85256,-2.77082 1.27884,-8.5256 0.42628,-5.96792 0.63942,-13.00154 0.21314,-7.24676 0.21314,-14.9198 0.21314,-7.88618 0.63942,-14.70666 0.85256,-15.34608 -1.0657,-25.15052 -1.70512,-9.80444 -5.54164,-15.34608 -3.83652,-5.54164 -9.37816,-7.24676 -5.54164,-1.91826 -12.14898,-1.27884 -7.4599,0.63942 -10.657,5.54164 -3.1971,4.68908 -4.47594,12.14898 -1.0657,7.24676 -0.85256,16.41178 0.21314,9.16502 0,18.54318 -0.21314,7.03362 -0.42628,15.13294 -0.21314,8.09932 0,14.9198 0.42628,6.82048 1.49198,11.50956 1.27884,4.68908 3.62338,5.11536 -6.18106,0.21314 -11.29642,0.21314 -5.11536,0 -8.73874,0 -4.2628,0 -7.4599,0.21314 0.85256,-1.70512 1.49198,-7.03362 0.63942,-5.54164 1.0657,-13.00154 0.42628,-7.4599 0.85256,-15.9855 0.42628,-8.5256 0.63942,-16.41178 0.21314,-17.90376 -2.98396,-28.13448 -2.98396,-10.44386 -8.31246,-14.9198 -5.3285,-4.68908 -12.14898,-4.47594 -6.82048,0 -13.64096,2.98396 -3.41024,1.70512 -4.90222,6.3942 -1.49198,4.68908 -1.91826,11.50956 -0.42628,6.82048 -0.42628,15.13294 0,8.31246 -0.21314,16.83806 0,3.62338 -0.21314,10.657 0,7.03362 0,14.49352 0.21314,7.24676 0.63942,13.42782 0.63942,6.18106 1.91826,7.88618 -9.37816,-0.63942 -16.62492,0 -4.04966,0.42628 -7.67304,0.85256 0.85256,-3.41024 1.27884,-9.5913 0.63942,-6.18106 0.85256,-13.8541 0.42628,-7.67304 0.63942,-15.9855 0.21314,-8.5256 0.42628,-16.62492 0.21314,-6.60734 0.21314,-12.7884 0.21314,-6.18106 0,-11.08328 -0.21314,-5.11536 -1.27884,-8.73874 -0.85256,-3.83652 -2.77082,-5.75478 -2.1314,-1.91826 -4.2628,-3.1971 -2.1314,-1.27884 -4.04966,-2.1314 -2.34454,-0.85256 -4.2628,-1.70512 z"
       id="path12"
       inkscape:export-filename="vellvm.png"
       inkscape:export-xdpi="96"
       inkscape:export-ydpi="96" /><path
       style="font-size:213.14px;font-family:'Kells SD';-inkscape-font-specification:'Kells SD, Normal';stroke:#000000;stroke-width:3.63378;stroke-linecap:square;stroke-dasharray:none;stroke-opacity:1"
       d="m 540.83353,191.95347 q 5.54164,0 11.29642,-0.42628 4.90222,-0.21314 10.657,-0.63942 5.75478,-0.42628 10.87014,-1.0657 1.49198,7.03362 4.68908,15.9855 3.1971,8.73874 7.03362,18.33004 4.04966,9.37816 8.5256,18.75632 4.47594,9.37816 8.5256,17.69062 4.2628,8.09932 7.67304,14.49352 3.62338,6.18106 5.54164,9.37816 1.70512,-4.47594 4.68908,-11.29642 2.98396,-7.03362 6.18106,-15.13294 3.1971,-8.09932 6.3942,-16.41178 3.1971,-8.5256 5.54164,-15.77236 2.55768,-7.24676 3.83652,-12.7884 1.49198,-5.54164 0.85256,-7.67304 -0.63942,-2.77082 -2.1314,-4.90222 -1.27884,-2.1314 -2.98396,-3.62338 -1.49198,-1.70512 -3.1971,-2.98396 -1.70512,-1.49198 -2.98396,-2.98396 6.18106,0.42628 11.93584,0.63942 4.90222,0.21314 10.44386,0.21314 5.54164,0 9.80444,-0.63942 -0.85256,1.70512 -4.04966,8.95188 -3.1971,7.03362 -7.88618,17.0512 -4.47594,9.80444 -9.80444,21.52714 -5.11536,11.50956 -9.5913,22.16656 -4.47594,10.44386 -7.67304,18.75632 -3.1971,8.31246 -3.62338,11.7227 l 4.68908,5.11536 q -4.2628,0 -8.5256,0.21314 -3.62338,0.21314 -8.31246,0.42628 -4.47594,0.21314 -8.95188,0.63942 -2.55768,-3.62338 -6.60734,-11.29642 -3.83652,-7.88618 -8.73874,-17.69062 -4.68908,-9.80444 -9.80444,-20.67458 -4.90222,-10.87014 -9.37816,-20.46144 -4.47594,-9.80444 -8.09932,-17.26434 -3.62338,-7.4599 -5.3285,-10.657 -1.70512,-2.98396 -3.83652,-4.68908 -1.91826,-1.70512 -3.62338,-2.34454 -2.1314,-0.85256 -4.04966,-0.63942 z"
       id="path11" /><path
       style="font-size:213.14px;font-family:'Kells SD';-inkscape-font-specification:'Kells SD, Normal';stroke:#000000;stroke-width:4.04172;stroke-linecap:square;stroke-dasharray:none;stroke-opacity:1"
       d="m 499.14752,129.26935 q 6.97334,-1.59577 13.10143,-3.72346 5.28284,-1.86174 10.56568,-3.98943 5.49415,-2.39366 8.66385,-4.78731 -1.05657,9.30866 -1.4792,19.41521 -0.21131,10.10654 -0.42262,21.27693 0,11.1704 0,23.6706 0,12.5002 -0.21132,26.86213 -0.21131,14.09597 -0.42262,27.66002 -0.21132,13.29809 -0.21132,25.00041 0.21132,11.43635 0.84526,20.47905 0.63394,9.0427 2.11313,14.6279 -4.22627,-0.26597 -7.60728,-0.26597 -3.1697,-0.26596 -6.12809,0 -2.74708,0 -5.70547,0.53193 -2.74707,0.26596 -6.12809,1.06384 1.4792,-2.92557 2.53576,-14.36193 1.05657,-11.70232 1.90183,-27.66002 0.84525,-16.22367 1.05656,-34.30906 0.42263,-18.35136 0.42263,-34.30907 0,-16.22366 -0.63394,-27.92598 -0.42263,-11.70231 -1.26788,-14.62789 -1.26788,-3.72347 -3.1697,-6.38308 -1.90182,-2.92558 -3.59233,-4.78732 -2.11314,-2.12769 -4.22627,-3.4575 z"
       id="path10" /><path
       style="font-size:213.14px;font-family:'Kells SD';-inkscape-font-specification:'Kells SD, Normal';stroke:#000000;stroke-width:4.04172;stroke-linecap:square;stroke-dasharray:none;stroke-opacity:1"
       d="m 441.03639,129.26935 q 6.97335,-1.59577 13.10144,-3.72346 5.28284,-1.86174 10.56567,-3.98943 5.49415,-2.39366 8.66385,-4.78731 -1.05656,9.30866 -1.47919,19.41521 -0.21131,10.10654 -0.42263,21.27693 0,11.1704 0,23.6706 0,12.5002 -0.21131,26.86213 -0.21131,14.09597 -0.42263,27.66002 -0.21131,13.29809 -0.21131,25.00041 0.21131,11.43635 0.84525,20.47905 0.63394,9.0427 2.11314,14.6279 -4.22627,-0.26597 -7.60729,-0.26597 -3.1697,-0.26596 -6.12809,0 -2.74707,0 -5.70546,0.53193 -2.74708,0.26596 -6.12809,1.06384 1.47919,-2.92557 2.53576,-14.36193 1.05657,-11.70232 1.90182,-27.66002 0.84526,-16.22367 1.05657,-34.30906 0.42263,-18.35136 0.42263,-34.30907 0,-16.22366 -0.63394,-27.92598 -0.42263,-11.70231 -1.26789,-14.62789 -1.26788,-3.72347 -3.1697,-6.38308 -1.90182,-2.92558 -3.59233,-4.78732 -2.11313,-2.12769 -4.22627,-3.4575 z"
       id="path9" /><path
       style="font-size:213.14px;font-family:'Kells SD';-inkscape-font-specification:'Kells SD, Normal';stroke:#000000;stroke-width:3.63379;stroke-linecap:square;stroke-dasharray:none;stroke-opacity:1"
       d="m 372.17376,190.67463 q 9.5913,-1.0657 17.90376,0.63942 8.5256,1.70512 14.9198,5.54164 6.60734,3.62338 10.87014,8.95188 4.2628,5.3285 5.54164,11.50956 l 17.26434,-1.70512 -1.91826,2.34454 -16.62492,0.21314 q 0,1.0657 -6.60734,1.70512 -6.60734,0.42628 -17.26434,0.85256 -10.657,0.42628 -24.08482,0.85256 -13.21468,0.21314 -26.85564,1.0657 -3.1971,12.36212 -2.34454,22.59284 1.0657,10.23072 4.68908,18.33004 3.83652,7.88618 9.80444,13.8541 5.96792,5.75478 12.57526,9.37816 6.82048,3.41024 13.64096,4.47594 7.03362,0.85256 12.57526,-0.85256 6.82048,-2.1314 10.23072,-5.96792 3.41024,-4.04966 5.11536,-8.09932 1.91826,-4.68908 2.1314,-10.01758 2.77082,1.27884 6.18106,2.1314 2.98396,0.85256 6.60734,1.49198 3.62338,0.63942 7.88618,0.42628 -4.2628,5.3285 -9.80444,10.01758 -4.90222,4.04966 -12.14898,8.09932 -7.03362,4.04966 -16.62492,6.18106 -18.33004,3.83652 -31.54472,2.1314 -13.21468,-1.91826 -21.95342,-7.67304 -8.5256,-5.75478 -13.00154,-14.70666 -4.2628,-8.95188 -4.90222,-19.39574 -1.0657,-13.21468 1.70512,-24.29796 2.77082,-11.29642 8.73874,-19.60888 6.18106,-8.5256 15.55922,-13.8541 9.37816,-5.3285 21.74028,-6.60734 z m -25.5768,29.20018 q 5.75478,-0.63942 14.06724,-0.85256 8.31246,-0.42628 16.19864,-0.63942 8.09932,-0.21314 13.8541,-0.63942 5.96792,-0.42628 6.60734,-1.27884 0.63942,-1.0657 0,-5.3285 -0.63942,-4.47594 -3.83652,-8.73874 -2.98396,-4.2628 -8.95188,-6.82048 -5.96792,-2.77082 -15.77236,-0.42628 -7.03362,1.70512 -11.50956,5.75478 -4.2628,4.04966 -6.60734,8.31246 -2.77082,5.11536 -4.04966,10.657 z"
       id="text1" /></g><g
     inkscape:label="V copy"
     inkscape:groupmode="layer"
     id="g4"
     style="display:inline"><path
       d="m 103.60383,93.675664 q 12.23394,0 24.93841,-0.941072 10.82233,-0.470536 23.5268,-1.411608 12.70448,-0.941073 23.99734,-2.352681 3.29375,15.527687 10.35179,35.290197 7.05804,19.29198 15.52769,40.4661 8.94019,20.70359 18.82144,41.40717 9.88126,20.70358 18.82144,39.05449 9.41072,17.88037 16.9393,31.99645 7.99911,13.64554 12.23393,20.70358 3.76429,-9.88125 10.3518,-24.93841 6.5875,-15.52768 13.64554,-33.40805 7.05804,-17.88037 14.11608,-36.23128 7.05804,-18.82144 12.23394,-34.81966 5.64643,-15.99823 8.46965,-28.23216 3.29375,-12.23394 1.88214,-16.9393 -1.41161,-6.11697 -4.70536,-10.82233 -2.82322,-4.70536 -6.5875,-7.99911 -3.29376,-3.76429 -7.05804,-6.587502 -3.76429,-3.293752 -6.58751,-6.587504 13.64555,0.941072 26.35002,1.411608 10.82233,0.470536 23.05626,0.470536 12.23394,0 21.64466,-1.411608 -1.88215,3.764288 -8.94019,19.76251 -7.05804,15.52769 -17.40983,37.64288 -9.88125,21.64466 -21.64465,47.52414 -11.29287,25.40894 -21.17412,48.93575 -9.88126,23.05626 -16.9393,41.40716 -7.05804,18.35091 -7.99911,25.87948 l 10.35179,11.29287 q -9.41072,0 -18.82144,0.47053 -7.99911,0.47054 -18.35091,0.94108 -9.88125,0.47053 -19.76251,1.4116 -5.64643,-7.99911 -14.58661,-24.9384 -8.46965,-17.40984 -19.29198,-39.05449 -10.35179,-21.64466 -21.64466,-45.642 -10.82233,-23.99733 -20.70358,-45.17145 -9.88126,-21.64466 -17.88037,-38.11342 -7.99911,-16.46876 -11.7634,-23.5268 -3.76429,-6.5875 -8.46965,-10.35179 -4.23482,-3.76429 -7.99911,-5.175898 -4.70536,-1.882144 -8.94019,-1.411608 z"
       id="text2"
       style="font-size:470.536px;font-family:'Kells SD';-inkscape-font-specification:'Kells SD, Normal';stroke:#000000;stroke-width:6.11617"
       inkscape:label="text3"
       transform="scale(0.95035209,1.0522416)"
       aria-label="V" /></g><g
     inkscape:groupmode="layer"
     id="layer8"
     inkscape:label="Knot 4"
     style="display:inline"><g
       id="g50"
       style="display:inline;stroke:#ffcc00"
       transform="matrix(0.84946909,-0.39377502,0.38414803,0.87126257,341.49578,-1.229114)"><path
         style="fill:none;stroke:#ffcc00;stroke-width:4.23333;stroke-linecap:butt;stroke-linejoin:miter;stroke-dasharray:none;stroke-opacity:1"
         d="m -240.32294,20.997826 -8.3179,7.82717 -0.0675,50.55 10.58333,10.583334 v 119.0625 l 10.47731,10.79927 -0.22812,40.23031"
         id="path34"
         sodipodi:nodetypes="ccccccc" /><path
         style="fill:none;stroke:#ffcc00;stroke-width:4.23333;stroke-linecap:butt;stroke-linejoin:miter;stroke-dasharray:none;stroke-opacity:1"
         d="m -229.65403,28.294658 -8.47097,8.679074 1e-5,37.109599 10.58333,10.583333 V 203.72916"
         id="path35"
         sodipodi:nodetypes="ccccc" /><circle
         style="fill:none;fill-opacity:1;stroke:#ffcc00;stroke-width:2.87721;stroke-linecap:square;stroke-dasharray:none"
         id="circle36"
         cx="-227.54166"
         cy="26.458332"
         r="3.8530638" /><circle
         style="fill:none;fill-opacity:1;stroke:#ffcc00;stroke-width:2.87721;stroke-linecap:square;stroke-dasharray:none"
         id="circle38"
         cx="-238.125"
         cy="18.520832"
         r="3.8530638" /><circle
         style="fill:none;fill-opacity:1;stroke:#ffcc00;stroke-width:2.87721;stroke-linecap:square;stroke-dasharray:none"
         id="circle39"
         cx="-227.54166"
         cy="42.333332"
         r="3.8530638" /><circle
         style="fill:#000000;fill-opacity:1;stroke:#ffcc00;stroke-width:2.87721;stroke-linecap:square;stroke-dasharray:none"
         id="circle40"
         cx="-227.54166"
         cy="71.4375"
         r="3.8530638" /><path
         style="fill:none;stroke:#ffcc00;stroke-width:4.23333;stroke-linecap:butt;stroke-linejoin:miter;stroke-dasharray:none;stroke-opacity:1"
         d="M -227.54166,44.979166 V 68.791665"
         id="path40" /><circle
         style="fill:none;fill-opacity:1;stroke:#ffcc00;stroke-width:2.87721;stroke-linecap:square;stroke-dasharray:none"
         id="circle41"
         cx="-227.54166"
         cy="206.375"
         r="3.8530638" /><circle
         style="fill:none;fill-opacity:1;stroke:#ffcc00;stroke-width:2.87721;stroke-linecap:square;stroke-dasharray:none"
         id="circle42"
         cx="-259.29166"
         cy="10.583333"
         r="3.8530638" /><path
         style="fill:none;stroke:#ffcc00;stroke-width:4.23333;stroke-linecap:butt;stroke-linejoin:miter;stroke-dasharray:none;stroke-opacity:1"
         d="m -259.29166,13.229166 v 74.08333 l 10.58334,10.583333 0.0675,100.499241 -10.65082,10.50326 -0.16159,56.83543"
         id="path42"
         sodipodi:nodetypes="cccccc" /><circle
         style="fill:none;fill-opacity:1;stroke:#ffcc00;stroke-width:2.87721;stroke-linecap:square;stroke-dasharray:none"
         id="circle43"
         cx="-259.29166"
         cy="100.54166"
         r="3.8530638" /><circle
         style="fill:none;fill-opacity:1;stroke:#ffcc00;stroke-width:2.87721;stroke-linecap:square;stroke-dasharray:none"
         id="circle44"
         cx="-259.29166"
         cy="195.79166"
         r="3.8530638" /><path
         style="fill:none;stroke:#ffcc00;stroke-width:4.23333;stroke-linecap:butt;stroke-linejoin:miter;stroke-dasharray:none;stroke-opacity:1"
         d="M -259.29166,193.14583 V 103.1875"
         id="path44" /><circle
         style="fill:none;fill-opacity:1;stroke:#ffcc00;stroke-width:2.87721;stroke-linecap:square;stroke-dasharray:none"
         id="circle46"
         cx="-248.70833"
         cy="230.1875"
         r="3.8530638" /><path
         style="fill:none;stroke:#ffcc00;stroke-width:4.23333;stroke-linecap:butt;stroke-linejoin:miter;stroke-dasharray:none;stroke-opacity:1"
         d="m -246.01758,216.73652 7.89259,8.15931 v 42.33333"
         id="path46"
         sodipodi:nodetypes="ccc" /><path
         style="fill:none;stroke:#ffcc00;stroke-width:4.23333;stroke-linecap:butt;stroke-linejoin:miter;stroke-dasharray:none;stroke-opacity:1"
         d="m -248.70833,232.83333 -0.14492,27.92844"
         id="path47"
         sodipodi:nodetypes="cc" /><circle
         style="fill:none;fill-opacity:1;stroke:#ffcc00;stroke-width:2.87721;stroke-linecap:square;stroke-dasharray:none"
         id="circle45"
         cx="-248.70833"
         cy="214.3125"
         r="3.8530638" /><circle
         style="fill:none;fill-opacity:1;stroke:#ffcc00;stroke-width:2.87721;stroke-linecap:square;stroke-dasharray:none"
         id="circle47"
         cx="-227.10321"
         cy="263.21579"
         r="3.8530638" /><circle
         style="fill:none;fill-opacity:1;stroke:#ffcc00;stroke-width:2.87721;stroke-linecap:square;stroke-dasharray:none"
         id="circle48"
         cx="-238.125"
         cy="271.3136"
         r="3.8530638" /><circle
         style="fill:none;fill-opacity:1;stroke:#ffcc00;stroke-width:2.87721;stroke-linecap:square;stroke-dasharray:none"
         id="circle49"
         cx="-259.29166"
         cy="269.875"
         r="3.8530638" /><circle
         style="fill:none;fill-opacity:1;stroke:#ffcc00;stroke-width:2.87721;stroke-linecap:square;stroke-dasharray:none"
         id="circle50"
         cx="-248.70833"
         cy="263.3761"
         r="3.8530638" /></g></g><g
     inkscape:groupmode="layer"
     id="layer3"
     inkscape:label="Scroll"
     style="display:inline"><g
       id="g38"
       transform="translate(2.1531452,9.135293)"
       style="display:inline"><g
         id="g21"
         style="stroke-width:1.5875;stroke-dasharray:none"
         transform="rotate(1.4870136,3.6756564,915.8434)"><path
           style="display:inline;fill:none;fill-opacity:1;stroke:#000000;stroke-width:1.5875;stroke-linecap:square;stroke-dasharray:none"
           id="path18"
           sodipodi:type="arc"
           sodipodi:cx="33.265785"
           sodipodi:cy="14.625319"
           sodipodi:rx="16.767109"
           sodipodi:ry="5.9389462"
           sodipodi:start="3.0624749"
           sodipodi:end="0.058160034"
           sodipodi:open="true"
           sodipodi:arc-type="arc"
           d="m 16.551127,15.094705 a 16.767109,5.9389462 0 0 1 7.851468,-5.5107646 16.767109,5.9389462 0 0 1 17.426164,-0.064682 16.767109,5.9389462 0 0 1 8.175785,5.4512745" /><path
           style="display:inline;fill:none;stroke:#000000;stroke-width:1.5875;stroke-linecap:butt;stroke-linejoin:miter;stroke-dasharray:none;stroke-opacity:1"
           d="m 16.498676,14.625319 3.49487,358.626301"
           id="path19"
           sodipodi:nodetypes="cc" /><path
           style="display:inline;fill:none;stroke:#000000;stroke-width:1.5875;stroke-linecap:butt;stroke-linejoin:miter;stroke-dasharray:none;stroke-opacity:1"
           d="M 50.032894,14.625319 77.812378,373.25162"
           id="path20"
           sodipodi:nodetypes="cc" /><path
           style="display:inline;fill:none;stroke:#000000;stroke-width:1.5875;stroke-linecap:butt;stroke-linejoin:miter;stroke-dasharray:none;stroke-opacity:1"
           d="M 41.482235,379.27745 40.5889,367.58937"
           id="path21"
           sodipodi:nodetypes="cc" /><ellipse
           style="display:inline;fill:none;fill-opacity:1;stroke:#000000;stroke-width:1.5875;stroke-linecap:square;stroke-dasharray:none"
           id="ellipse21"
           cx="48.902962"
           cy="373.25162"
           rx="29.172962"
           ry="5.965899" /></g><g
         id="g36"
         style="stroke-width:1.5875;stroke-dasharray:none"
         transform="matrix(0.99966323,-0.02595037,-0.02595037,-0.99966323,841.61698,388.15425)"><path
           style="display:inline;fill:none;fill-opacity:1;stroke:#000000;stroke-width:1.5875;stroke-linecap:square;stroke-dasharray:none"
           id="path31"
           sodipodi:type="arc"
           sodipodi:cx="33.265785"
           sodipodi:cy="14.625319"
           sodipodi:rx="16.767109"
           sodipodi:ry="5.9389462"
           sodipodi:start="3.0624749"
           sodipodi:end="0.058160034"
           sodipodi:open="true"
           sodipodi:arc-type="arc"
           d="m 16.551127,15.094705 a 16.767109,5.9389462 0 0 1 7.851468,-5.5107646 16.767109,5.9389462 0 0 1 17.426164,-0.064682 16.767109,5.9389462 0 0 1 8.175785,5.4512745" /><path
           style="display:inline;fill:none;stroke:#000000;stroke-width:1.5875;stroke-linecap:butt;stroke-linejoin:miter;stroke-dasharray:none;stroke-opacity:1"
           d="m 16.498676,14.625319 3.49487,358.626301"
           id="path32"
           sodipodi:nodetypes="cc" /><path
           style="display:inline;fill:none;stroke:#000000;stroke-width:1.5875;stroke-linecap:butt;stroke-linejoin:miter;stroke-dasharray:none;stroke-opacity:1"
           d="M 50.032894,14.625319 77.812378,373.25162"
           id="path33"
           sodipodi:nodetypes="cc" /><path
           style="display:inline;fill:none;stroke:#000000;stroke-width:1.5875;stroke-linecap:butt;stroke-linejoin:miter;stroke-dasharray:none;stroke-opacity:1"
           d="M 41.482235,379.27745 40.5889,367.58937"
           id="path36"
           sodipodi:nodetypes="cc" /><ellipse
           style="display:inline;fill:none;fill-opacity:1;stroke:#000000;stroke-width:1.5875;stroke-linecap:square;stroke-dasharray:none"
           id="ellipse36"
           cx="48.902962"
           cy="373.25162"
           rx="29.172962"
           ry="5.965899" /></g><path
         style="fill:none;stroke:#000000;stroke-width:1.5875;stroke-linecap:butt;stroke-linejoin:miter;stroke-dasharray:none;stroke-opacity:1"
         d="M 73.404225,16.131807 851.65431,14.516332"
         id="path37"
         sodipodi:nodetypes="cc" /><path
         style="fill:none;stroke:#000000;stroke-width:1.5875;stroke-linecap:butt;stroke-linejoin:miter;stroke-dasharray:none;stroke-opacity:1"
         d="M 92.131326,375.36506 857.73057,373.1057"
         id="path38"
         sodipodi:nodetypes="cc" /></g></g><g
     inkscape:groupmode="layer"
     id="layer5"
     inkscape:label="Shade2"
     style="display:inline"><path
       id="path41"
       style="display:inline;fill:url(#linearGradient43);stroke:#000000;stroke-width:1.32292;stroke-dasharray:none"
       d="m 55.738199,18.921325 a 16.767109,5.9389462 1.4870136 0 0 -5.671488,0.640788 16.767109,5.9389462 1.4870136 0 0 -7.99176,5.305103 l -0.04031,-0.470256 -5.800679,357.8288 a 29.172962,5.965899 1.4870136 0 1 29.042154,-4.44624 29.172962,5.965899 1.4870136 0 1 28.699023,5.82342 L 75.557144,25.267191 l -0.03721,0.344165 a 16.767109,5.9389462 1.4870136 0 0 -8.031551,-5.66167 16.767109,5.9389462 1.4870136 0 0 -11.750187,-1.028361 z" /><path
       id="path5"
       style="display:inline;fill:url(#linearGradient43);stroke:#000000;stroke-width:1.32292;stroke-dasharray:none"
       d="m 55.738199,18.921325 a 16.767109,5.9389462 1.4870136 0 0 -5.671488,0.640788 16.767109,5.9389462 1.4870136 0 0 -7.99176,5.305103 l -0.04031,-0.470256 -5.800679,357.8288 a 29.172962,5.965899 1.4870136 0 1 29.042154,-4.44624 29.172962,5.965899 1.4870136 0 1 28.699023,5.82342 L 75.557144,25.267191 l -0.03721,0.344165 a 16.767109,5.9389462 1.4870136 0 0 -8.031551,-5.66167 16.767109,5.9389462 1.4870136 0 0 -11.750187,-1.028361 z" /></g><g
     inkscape:groupmode="layer"
     id="layer4"
     inkscape:label="Shade1"
     style="display:inline"><path
       style="display:inline;fill:#c18e60;fill-opacity:1;stroke:#000000;stroke-width:1.5875;stroke-linecap:square;stroke-dasharray:none"
       id="ellipse21-8"
       transform="rotate(1.4870136)"
       d="m 66.75233,376.20511 a 29.172962,5.965899 0 0 1 31.860299,2.19931 29.172962,5.965899 0 0 1 0.564713,6.87567 29.172962,5.965899 0 0 1 -31.481162,2.41688 z"
       sodipodi:type="arc"
       sodipodi:arc-type="chord"
       sodipodi:open="true"
       sodipodi:start="4.4237022"
       sodipodi:end="1.8258941"
       sodipodi:ry="5.965899"
       sodipodi:rx="29.172962"
       sodipodi:cy="381.92413"
       sodipodi:cx="75.057686" /><path
       id="path21-6"
       style="display:inline;fill:#fee2bb;stroke:#000000;stroke-width:1.5875;stroke-linecap:butt;stroke-linejoin:miter;stroke-dasharray:none;stroke-opacity:1;fill-opacity:1"
       d="M 57.546735,389.57453 56.957011,377.8672 m 0.802562,11.46754 a 29.172962,5.965899 1.4870136 0 1 -21.796804,-6.20641 29.172962,5.965899 1.4870136 0 1 20.758896,-5.3089" /></g><g
     inkscape:groupmode="layer"
     id="layer2"
     inkscape:label="Shade4"><path
       id="path5-8"
       style="display:inline;fill:url(#linearGradient7);stroke:#000000;stroke-width:1.32292;stroke-dasharray:none"
       d="m 873.61051,387.27131 a 5.9389462,16.767109 88.512986 0 1 -5.67149,-0.64079 5.9389462,16.767109 88.512986 0 1 -7.99176,-5.3051 l -0.0403,0.47025 -5.80068,-357.828786 a 5.965899,29.172962 88.512986 0 0 29.04215,4.44624 5.965899,29.172962 88.512986 0 0 28.69903,-5.82342 l -18.418,358.335736 -0.0372,-0.34416 a 5.9389462,16.767109 88.512986 0 1 -8.03155,5.66167 5.9389462,16.767109 88.512986 0 1 -11.75019,1.02836 z" /></g><g
     inkscape:groupmode="layer"
     id="layer7"
     inkscape:label="Shade5"><path
       style="display:inline;fill:#c18e60;fill-opacity:1;stroke:#000000;stroke-width:1.5875;stroke-linecap:square;stroke-dasharray:none"
       id="ellipse21-8-8"
       transform="matrix(0.99966323,-0.02595037,-0.02595037,-0.99966323,0,0)"
       d="m 873.77362,-51.523267 a 29.172962,5.965899 0 0 1 31.8603,2.199309 29.172962,5.965899 0 0 1 0.56472,6.875672 29.172962,5.965899 0 0 1 -31.48117,2.416875 z"
       sodipodi:type="arc"
       sodipodi:arc-type="chord"
       sodipodi:open="true"
       sodipodi:start="4.4237022"
       sodipodi:end="1.8258941"
       sodipodi:ry="5.965899"
       sodipodi:rx="29.172962"
       sodipodi:cy="-45.804245"
       sodipodi:cx="882.07898" /><path
       id="path21-6-0"
       style="display:inline;fill:#fee2bb;stroke:#000000;stroke-width:1.5875;stroke-linecap:butt;stroke-linejoin:miter;stroke-dasharray:none;stroke-opacity:1;fill-opacity:1"
       d="m 875.39596,17.067285 -0.58973,11.70733 m 0.80257,-11.46754 a 5.965899,29.172962 88.512986 0 0 -21.79681,6.20641 5.965899,29.172962 88.512986 0 0 20.7589,5.3089" /></g></svg>
