<?xml version="1.0" encoding="UTF-8" standalone="no"?>
<!-- Created with Inkscape (http://www.inkscape.org/) -->

<svg
   width="3600"
   height="1500"
   viewBox="0 0 952.49998 396.875"
   version="1.1"
   id="svg1"
   inkscape:version="1.3.2 (091e20e, 2023-11-25)"
   sodipodi:docname="vellvm-V.svg"
   xml:space="preserve"
   inkscape:export-filename="VellvmLogoCircuit3.png"
   inkscape:export-xdpi="96"
   inkscape:export-ydpi="96"
   xmlns:inkscape="http://www.inkscape.org/namespaces/inkscape"
   xmlns:sodipodi="http://sodipodi.sourceforge.net/DTD/sodipodi-0.dtd"
   xmlns="http://www.w3.org/2000/svg"
   xmlns:svg="http://www.w3.org/2000/svg"><sodipodi:namedview
     id="namedview1"
     pagecolor="#ffffff"
     bordercolor="#000000"
     borderopacity="0.25"
     inkscape:showpageshadow="2"
     inkscape:pageopacity="0.0"
     inkscape:pagecheckerboard="0"
     inkscape:deskcolor="#d1d1d1"
     inkscape:document-units="px"
     showgrid="false"
     inkscape:zoom="0.13796201"
     inkscape:cx="2243.3712"
     inkscape:cy="1478.6679"
     inkscape:window-width="1728"
     inkscape:window-height="1051"
     inkscape:window-x="0"
     inkscape:window-y="38"
     inkscape:window-maximized="0"
     inkscape:current-layer="g4"
     showguides="false"><inkscape:grid
       id="grid1"
       units="px"
       originx="0"
       originy="0"
       spacingx="2.6458333"
       spacingy="2.6458333"
       empcolor="#0099e5"
       empopacity="0.30196078"
       color="#0099e5"
       opacity="0.14901961"
       empspacing="5"
       dotted="false"
       gridanglex="30"
       gridanglez="30"
       visible="false" /></sodipodi:namedview><defs
     id="defs1"><inkscape:path-effect
       effect="fill_between_many"
       method="originald"
       linkedpaths="#path15,0,1"
       id="path-effect22"
       is_visible="true"
       lpeversion="0"
       join="true"
       close="true"
       autoreverse="true" /><inkscape:path-effect
       effect="fill_between_many"
       method="originald"
       linkedpaths="#path15,0,1"
       id="path-effect23"
       is_visible="true"
       lpeversion="0"
       join="true"
       close="true"
       autoreverse="true" /><inkscape:path-effect
       effect="fill_between_many"
       method="originald"
       linkedpaths="#path15,0,1"
       id="path-effect29"
       is_visible="true"
       lpeversion="0"
       join="true"
       close="true"
       autoreverse="true" /><inkscape:path-effect
       effect="fill_between_many"
       method="originald"
       linkedpaths="#path18-8,0,1|#path19-0,0,1|#path20-4,0,1|"
       id="path-effect41" /><inkscape:path-effect
       effect="fill_between_many"
       method="originald"
       linkedpaths="#path20-2,0,1|#path37-9,0,1|#path38-9,0,1|#path32-3,0,1|"
       id="path-effect43" /></defs><g
     inkscape:label="V copy"
     inkscape:groupmode="layer"
     id="g4"
     style="display:inline"><path
       d="m 103.60383,93.675664 q 12.23394,0 24.93841,-0.941072 10.82233,-0.470536 23.5268,-1.411608 12.70448,-0.941073 23.99734,-2.352681 3.29375,15.527687 10.35179,35.290197 7.05804,19.29198 15.52769,40.4661 8.94019,20.70359 18.82144,41.40717 9.88126,20.70358 18.82144,39.05449 9.41072,17.88037 16.9393,31.99645 7.99911,13.64554 12.23393,20.70358 3.76429,-9.88125 10.3518,-24.93841 6.5875,-15.52768 13.64554,-33.40805 7.05804,-17.88037 14.11608,-36.23128 7.05804,-18.82144 12.23394,-34.81966 5.64643,-15.99823 8.46965,-28.23216 3.29375,-12.23394 1.88214,-16.9393 -1.41161,-6.11697 -4.70536,-10.82233 -2.82322,-4.70536 -6.5875,-7.99911 -3.29376,-3.76429 -7.05804,-6.587502 -3.76429,-3.293752 -6.58751,-6.587504 13.64555,0.941072 26.35002,1.411608 10.82233,0.470536 23.05626,0.470536 12.23394,0 21.64466,-1.411608 -1.88215,3.764288 -8.94019,19.76251 -7.05804,15.52769 -17.40983,37.64288 -9.88125,21.64466 -21.64465,47.52414 -11.29287,25.40894 -21.17412,48.93575 -9.88126,23.05626 -16.9393,41.40716 -7.05804,18.35091 -7.99911,25.87948 l 10.35179,11.29287 q -9.41072,0 -18.82144,0.47053 -7.99911,0.47054 -18.35091,0.94108 -9.88125,0.47053 -19.76251,1.4116 -5.64643,-7.99911 -14.58661,-24.9384 -8.46965,-17.40984 -19.29198,-39.05449 -10.35179,-21.64466 -21.64466,-45.642 -10.82233,-23.99733 -20.70358,-45.17145 -9.88126,-21.64466 -17.88037,-38.11342 -7.99911,-16.46876 -11.7634,-23.5268 -3.76429,-6.5875 -8.46965,-10.35179 -4.23482,-3.76429 -7.99911,-5.175898 -4.70536,-1.882144 -8.94019,-1.411608 z"
       id="text2"
       style="font-size:470.536px;font-family:'Kells SD';-inkscape-font-specification:'Kells SD, Normal';stroke:#000000;stroke-width:6.11617"
       inkscape:label="text3"
       transform="scale(0.95035209,1.0522416)"
       aria-label="V" /></g><g
     inkscape:groupmode="layer"
     id="layer8"
     inkscape:label="Knot 4"
     style="display:inline"><g
       id="g50"
       style="display:inline;stroke:#ffcc00"
       transform="matrix(0.84946909,-0.39377502,0.38414803,0.87126257,341.49578,-1.229114)"><path
         style="fill:none;stroke:#ffcc00;stroke-width:4.23333;stroke-linecap:butt;stroke-linejoin:miter;stroke-dasharray:none;stroke-opacity:1"
         d="m -240.32294,20.997826 -8.3179,7.82717 -0.0675,50.55 10.58333,10.583334 v 119.0625 l 10.47731,10.79927 -0.22812,40.23031"
         id="path34"
         sodipodi:nodetypes="ccccccc" /><path
         style="fill:none;stroke:#ffcc00;stroke-width:4.23333;stroke-linecap:butt;stroke-linejoin:miter;stroke-dasharray:none;stroke-opacity:1"
         d="m -229.65403,28.294658 -8.47097,8.679074 1e-5,37.109599 10.58333,10.583333 V 203.72916"
         id="path35"
         sodipodi:nodetypes="ccccc" /><circle
         style="fill:none;fill-opacity:1;stroke:#ffcc00;stroke-width:2.87721;stroke-linecap:square;stroke-dasharray:none"
         id="circle36"
         cx="-227.54166"
         cy="26.458332"
         r="3.8530638" /><circle
         style="fill:none;fill-opacity:1;stroke:#ffcc00;stroke-width:2.87721;stroke-linecap:square;stroke-dasharray:none"
         id="circle38"
         cx="-238.125"
         cy="18.520832"
         r="3.8530638" /><circle
         style="fill:none;fill-opacity:1;stroke:#ffcc00;stroke-width:2.87721;stroke-linecap:square;stroke-dasharray:none"
         id="circle39"
         cx="-227.54166"
         cy="42.333332"
         r="3.8530638" /><circle
         style="fill:#000000;fill-opacity:1;stroke:#ffcc00;stroke-width:2.87721;stroke-linecap:square;stroke-dasharray:none"
         id="circle40"
         cx="-227.54166"
         cy="71.4375"
         r="3.8530638" /><path
         style="fill:none;stroke:#ffcc00;stroke-width:4.23333;stroke-linecap:butt;stroke-linejoin:miter;stroke-dasharray:none;stroke-opacity:1"
         d="M -227.54166,44.979166 V 68.791665"
         id="path40" /><circle
         style="fill:none;fill-opacity:1;stroke:#ffcc00;stroke-width:2.87721;stroke-linecap:square;stroke-dasharray:none"
         id="circle41"
         cx="-227.54166"
         cy="206.375"
         r="3.8530638" /><circle
         style="fill:none;fill-opacity:1;stroke:#ffcc00;stroke-width:2.87721;stroke-linecap:square;stroke-dasharray:none"
         id="circle42"
         cx="-259.29166"
         cy="10.583333"
         r="3.8530638" /><path
         style="fill:none;stroke:#ffcc00;stroke-width:4.23333;stroke-linecap:butt;stroke-linejoin:miter;stroke-dasharray:none;stroke-opacity:1"
         d="m -259.29166,13.229166 v 74.08333 l 10.58334,10.583333 0.0675,100.499241 -10.65082,10.50326 -0.16159,56.83543"
         id="path42"
         sodipodi:nodetypes="cccccc" /><circle
         style="fill:none;fill-opacity:1;stroke:#ffcc00;stroke-width:2.87721;stroke-linecap:square;stroke-dasharray:none"
         id="circle43"
         cx="-259.29166"
         cy="100.54166"
         r="3.8530638" /><circle
         style="fill:none;fill-opacity:1;stroke:#ffcc00;stroke-width:2.87721;stroke-linecap:square;stroke-dasharray:none"
         id="circle44"
         cx="-259.29166"
         cy="195.79166"
         r="3.8530638" /><path
         style="fill:none;stroke:#ffcc00;stroke-width:4.23333;stroke-linecap:butt;stroke-linejoin:miter;stroke-dasharray:none;stroke-opacity:1"
         d="M -259.29166,193.14583 V 103.1875"
         id="path44" /><circle
         style="fill:none;fill-opacity:1;stroke:#ffcc00;stroke-width:2.87721;stroke-linecap:square;stroke-dasharray:none"
         id="circle46"
         cx="-248.70833"
         cy="230.1875"
         r="3.8530638" /><path
         style="fill:none;stroke:#ffcc00;stroke-width:4.23333;stroke-linecap:butt;stroke-linejoin:miter;stroke-dasharray:none;stroke-opacity:1"
         d="m -246.01758,216.73652 7.89259,8.15931 v 42.33333"
         id="path46"
         sodipodi:nodetypes="ccc" /><path
         style="fill:none;stroke:#ffcc00;stroke-width:4.23333;stroke-linecap:butt;stroke-linejoin:miter;stroke-dasharray:none;stroke-opacity:1"
         d="m -248.70833,232.83333 -0.14492,27.92844"
         id="path47"
         sodipodi:nodetypes="cc" /><circle
         style="fill:none;fill-opacity:1;stroke:#ffcc00;stroke-width:2.87721;stroke-linecap:square;stroke-dasharray:none"
         id="circle45"
         cx="-248.70833"
         cy="214.3125"
         r="3.8530638" /><circle
         style="fill:none;fill-opacity:1;stroke:#ffcc00;stroke-width:2.87721;stroke-linecap:square;stroke-dasharray:none"
         id="circle47"
         cx="-227.10321"
         cy="263.21579"
         r="3.8530638" /><circle
         style="fill:none;fill-opacity:1;stroke:#ffcc00;stroke-width:2.87721;stroke-linecap:square;stroke-dasharray:none"
         id="circle48"
         cx="-238.125"
         cy="271.3136"
         r="3.8530638" /><circle
         style="fill:none;fill-opacity:1;stroke:#ffcc00;stroke-width:2.87721;stroke-linecap:square;stroke-dasharray:none"
         id="circle49"
         cx="-259.29166"
         cy="269.875"
         r="3.8530638" /><circle
         style="fill:none;fill-opacity:1;stroke:#ffcc00;stroke-width:2.87721;stroke-linecap:square;stroke-dasharray:none"
         id="circle50"
         cx="-248.70833"
         cy="263.3761"
         r="3.8530638" /></g></g></svg>
