<?xml version="1.0" encoding="UTF-8" standalone="no"?>
<!-- Created with Inkscape (http://www.inkscape.org/) -->

<svg
   width="1574.3734"
   height="1415.3021"
   viewBox="0 0 416.55296 374.46535"
   version="1.1"
   id="svg1"
   inkscape:version="1.3.2 (091e20e, 2023-11-25)"
   sodipodi:docname="vellvm-V-scroll.svg"
   xml:space="preserve"
   inkscape:export-filename="vellvm-V-scroll.png"
   inkscape:export-xdpi="96"
   inkscape:export-ydpi="96"
   xmlns:inkscape="http://www.inkscape.org/namespaces/inkscape"
   xmlns:sodipodi="http://sodipodi.sourceforge.net/DTD/sodipodi-0.dtd"
   xmlns:xlink="http://www.w3.org/1999/xlink"
   xmlns="http://www.w3.org/2000/svg"
   xmlns:svg="http://www.w3.org/2000/svg"><sodipodi:namedview
     id="namedview1"
     pagecolor="#ffffff"
     bordercolor="#000000"
     borderopacity="0.25"
     inkscape:showpageshadow="2"
     inkscape:pageopacity="0.0"
     inkscape:pagecheckerboard="0"
     inkscape:deskcolor="#d1d1d1"
     inkscape:document-units="px"
     showgrid="false"
     inkscape:zoom="0.2384562"
     inkscape:cx="828.24435"
     inkscape:cy="876.47123"
     inkscape:window-width="1728"
     inkscape:window-height="1051"
     inkscape:window-x="0"
     inkscape:window-y="38"
     inkscape:window-maximized="0"
     inkscape:current-layer="layer2"
     showguides="false"><inkscape:grid
       id="grid1"
       units="px"
       originx="-35.164039"
       originy="-16.088244"
       spacingx="2.6458333"
       spacingy="2.6458333"
       empcolor="#0099e5"
       empopacity="0.30196078"
       color="#0099e5"
       opacity="0.14901961"
       empspacing="5"
       dotted="false"
       gridanglex="30"
       gridanglez="30"
       visible="false" /></sodipodi:namedview><defs
     id="defs1"><linearGradient
       id="linearGradient7"
       inkscape:collect="always"><stop
         style="stop-color:#62371b;stop-opacity:1;"
         offset="0"
         id="stop8" /><stop
         style="stop-color:#c18e60;stop-opacity:1;"
         offset="0.02651048"
         id="stop10" /><stop
         style="stop-color:#e9b88d;stop-opacity:1;"
         offset="0.21362513"
         id="stop11" /><stop
         style="stop-color:#fee2bb;stop-opacity:1;"
         offset="0.95329845"
         id="stop12" /><stop
         style="stop-color:#532f17;stop-opacity:1;"
         offset="1"
         id="stop9" /></linearGradient><linearGradient
       id="linearGradient5"
       inkscape:collect="always"><stop
         style="stop-color:#61371b;stop-opacity:1;"
         offset="0"
         id="stop5" /><stop
         style="stop-color:#c18e60;stop-opacity:1;"
         offset="1"
         id="stop7" /></linearGradient><linearGradient
       id="linearGradient1"
       inkscape:collect="always"><stop
         style="stop-color:#c18e60;stop-opacity:1;"
         offset="0"
         id="stop1" /><stop
         style="stop-color:#fee2bb;stop-opacity:1;"
         offset="1"
         id="stop2" /></linearGradient><linearGradient
       id="linearGradient42"
       inkscape:collect="always"><stop
         style="stop-color:#c18e60;stop-opacity:1;"
         offset="0"
         id="stop42" /><stop
         style="stop-color:#ffefe5;stop-opacity:1;"
         offset="1"
         id="stop43" /></linearGradient><inkscape:path-effect
       effect="fill_between_many"
       method="originald"
       linkedpaths="#path15,0,1"
       id="path-effect22"
       is_visible="true"
       lpeversion="0"
       join="true"
       close="true"
       autoreverse="true" /><inkscape:path-effect
       effect="fill_between_many"
       method="originald"
       linkedpaths="#path15,0,1"
       id="path-effect23"
       is_visible="true"
       lpeversion="0"
       join="true"
       close="true"
       autoreverse="true" /><inkscape:path-effect
       effect="fill_between_many"
       method="originald"
       linkedpaths="#path15,0,1"
       id="path-effect29"
       is_visible="true"
       lpeversion="0"
       join="true"
       close="true"
       autoreverse="true" /><inkscape:path-effect
       effect="fill_between_many"
       method="originald"
       linkedpaths="#path18-8,0,1|#path19-0,0,1|#path20-4,0,1"
       id="path-effect41"
       is_visible="true"
       lpeversion="0"
       join="true"
       close="true"
       autoreverse="true" /><linearGradient
       inkscape:collect="always"
       xlink:href="#linearGradient42"
       id="linearGradient43"
       x1="35.536339"
       y1="202.04639"
       x2="94.75428"
       y2="202.04639"
       gradientUnits="userSpaceOnUse"
       gradientTransform="translate(35.16404,16.088244)" /><inkscape:path-effect
       effect="fill_between_many"
       method="originald"
       linkedpaths="#path20-2,0,1|#path37-9,0,1|#path38-9,0,1|#path32-3,0,1"
       id="path-effect43"
       is_visible="true"
       lpeversion="0"
       join="true"
       close="true"
       autoreverse="true" /><linearGradient
       inkscape:collect="always"
       xlink:href="#linearGradient1"
       id="linearGradient2"
       x1="392.19733"
       y1="204.14626"
       x2="451.41528"
       y2="204.14626"
       gradientUnits="userSpaceOnUse"
       gradientTransform="translate(35.16404,16.088244)" /><linearGradient
       inkscape:collect="always"
       xlink:href="#linearGradient5"
       id="linearGradient6"
       x1="283.00436"
       y1="-155.11844"
       x2="279.82175"
       y2="-152.06406"
       gradientUnits="userSpaceOnUse"
       gradientTransform="translate(35.16404,16.088244)" /><inkscape:path-effect
       effect="fill_between_many"
       method="originald"
       linkedpaths="#path37-9,0,1|#path38-9,0,1"
       id="path-effect7"
       is_visible="true"
       lpeversion="0"
       join="true"
       close="true"
       autoreverse="true" /><linearGradient
       inkscape:collect="always"
       xlink:href="#linearGradient7"
       id="linearGradient9"
       x1="75.520073"
       y1="204.07599"
       x2="398.67282"
       y2="204.07599"
       gradientUnits="userSpaceOnUse"
       gradientTransform="translate(35.16404,16.088244)" /><linearGradient
       inkscape:collect="always"
       xlink:href="#linearGradient42"
       id="linearGradient3"
       gradientUnits="userSpaceOnUse"
       x1="35.536339"
       y1="202.04639"
       x2="94.75428"
       y2="202.04639"
       gradientTransform="translate(35.16404,16.088244)" /></defs><g
     inkscape:groupmode="layer"
     id="layer6"
     inkscape:label="Shade3"
     style="fill:#ffccaa"
     transform="translate(-35.16404,-16.088244)"><path
       inkscape:original-d="M 0,0"
       inkscape:path-effect="#path-effect7"
       d="M 75.52007,25.611463 392.86014,23.651629 398.67282,382.241 94.284472,384.50036 Z"
       id="path7"
       style="fill:url(#linearGradient9)" /><path
       style="display:inline;fill:url(#linearGradient6);fill-opacity:1;stroke:#000000;stroke-width:1.5875;stroke-linecap:butt;stroke-linejoin:miter;stroke-dasharray:none;stroke-opacity:1"
       d="M 75.52007,25.611463 392.86014,23.651629"
       id="path37-9"
       sodipodi:nodetypes="cc" /><path
       style="display:inline;fill:#ffccaa;stroke:#000000;stroke-width:1.5875;stroke-linecap:butt;stroke-linejoin:miter;stroke-dasharray:none;stroke-opacity:1"
       d="M 94.284472,384.50036 398.67282,382.241"
       id="path38-9"
       sodipodi:nodetypes="cc" /></g><g
     inkscape:label="V copy"
     inkscape:groupmode="layer"
     id="g4"
     style="display:inline"
     transform="translate(-35.16404,-16.088244)"><path
       d="m 103.60383,93.675664 q 12.23394,0 24.93841,-0.941072 10.82233,-0.470536 23.5268,-1.411608 12.70448,-0.941073 23.99734,-2.352681 3.29375,15.527687 10.35179,35.290197 7.05804,19.29198 15.52769,40.4661 8.94019,20.70359 18.82144,41.40717 9.88126,20.70358 18.82144,39.05449 9.41072,17.88037 16.9393,31.99645 7.99911,13.64554 12.23393,20.70358 3.76429,-9.88125 10.3518,-24.93841 6.5875,-15.52768 13.64554,-33.40805 7.05804,-17.88037 14.11608,-36.23128 7.05804,-18.82144 12.23394,-34.81966 5.64643,-15.99823 8.46965,-28.23216 3.29375,-12.23394 1.88214,-16.9393 -1.41161,-6.11697 -4.70536,-10.82233 -2.82322,-4.70536 -6.5875,-7.99911 -3.29376,-3.76429 -7.05804,-6.587502 -3.76429,-3.293752 -6.58751,-6.587504 13.64555,0.941072 26.35002,1.411608 10.82233,0.470536 23.05626,0.470536 12.23394,0 21.64466,-1.411608 -1.88215,3.764288 -8.94019,19.76251 -7.05804,15.52769 -17.40983,37.64288 -9.88125,21.64466 -21.64465,47.52414 -11.29287,25.40894 -21.17412,48.93575 -9.88126,23.05626 -16.9393,41.40716 -7.05804,18.35091 -7.99911,25.87948 l 10.35179,11.29287 q -9.41072,0 -18.82144,0.47053 -7.99911,0.47054 -18.35091,0.94108 -9.88125,0.47053 -19.76251,1.4116 -5.64643,-7.99911 -14.58661,-24.9384 -8.46965,-17.40984 -19.29198,-39.05449 -10.35179,-21.64466 -21.64466,-45.642 -10.82233,-23.99733 -20.70358,-45.17145 -9.88126,-21.64466 -17.88037,-38.11342 -7.99911,-16.46876 -11.7634,-23.5268 -3.76429,-6.5875 -8.46965,-10.35179 -4.23482,-3.76429 -7.99911,-5.175898 -4.70536,-1.882144 -8.94019,-1.411608 z"
       id="text2"
       style="font-size:470.536px;font-family:'Kells SD';-inkscape-font-specification:'Kells SD, Normal';stroke:#000000;stroke-width:6.11617"
       inkscape:label="text3"
       transform="scale(0.95035209,1.0522416)"
       aria-label="V" /></g><g
     inkscape:groupmode="layer"
     id="layer8"
     inkscape:label="Knot 4"
     style="display:inline"
     transform="translate(-35.16404,-16.088244)"><g
       id="g50"
       style="display:inline;stroke:#ffcc00"
       transform="matrix(0.84946909,-0.39377502,0.38414803,0.87126257,341.49578,-1.229114)"><path
         style="fill:none;stroke:#ffcc00;stroke-width:4.23333;stroke-linecap:butt;stroke-linejoin:miter;stroke-dasharray:none;stroke-opacity:1"
         d="m -240.32294,20.997826 -8.3179,7.82717 -0.0675,50.55 10.58333,10.583334 v 119.0625 l 10.47731,10.79927 -0.22812,40.23031"
         id="path34"
         sodipodi:nodetypes="ccccccc" /><path
         style="fill:none;stroke:#ffcc00;stroke-width:4.23333;stroke-linecap:butt;stroke-linejoin:miter;stroke-dasharray:none;stroke-opacity:1"
         d="m -229.65403,28.294658 -8.47097,8.679074 1e-5,37.109599 10.58333,10.583333 V 203.72916"
         id="path35"
         sodipodi:nodetypes="ccccc" /><circle
         style="fill:none;fill-opacity:1;stroke:#ffcc00;stroke-width:2.87721;stroke-linecap:square;stroke-dasharray:none"
         id="circle36"
         cx="-227.54166"
         cy="26.458332"
         r="3.8530638" /><circle
         style="fill:none;fill-opacity:1;stroke:#ffcc00;stroke-width:2.87721;stroke-linecap:square;stroke-dasharray:none"
         id="circle38"
         cx="-238.125"
         cy="18.520832"
         r="3.8530638" /><circle
         style="fill:none;fill-opacity:1;stroke:#ffcc00;stroke-width:2.87721;stroke-linecap:square;stroke-dasharray:none"
         id="circle39"
         cx="-227.54166"
         cy="42.333332"
         r="3.8530638" /><circle
         style="fill:#000000;fill-opacity:1;stroke:#ffcc00;stroke-width:2.87721;stroke-linecap:square;stroke-dasharray:none"
         id="circle40"
         cx="-227.54166"
         cy="71.4375"
         r="3.8530638" /><path
         style="fill:none;stroke:#ffcc00;stroke-width:4.23333;stroke-linecap:butt;stroke-linejoin:miter;stroke-dasharray:none;stroke-opacity:1"
         d="M -227.54166,44.979166 V 68.791665"
         id="path40" /><circle
         style="fill:none;fill-opacity:1;stroke:#ffcc00;stroke-width:2.87721;stroke-linecap:square;stroke-dasharray:none"
         id="circle41"
         cx="-227.54166"
         cy="206.375"
         r="3.8530638" /><circle
         style="fill:none;fill-opacity:1;stroke:#ffcc00;stroke-width:2.87721;stroke-linecap:square;stroke-dasharray:none"
         id="circle42"
         cx="-259.29166"
         cy="10.583333"
         r="3.8530638" /><path
         style="fill:none;stroke:#ffcc00;stroke-width:4.23333;stroke-linecap:butt;stroke-linejoin:miter;stroke-dasharray:none;stroke-opacity:1"
         d="m -259.29166,13.229166 v 74.08333 l 10.58334,10.583333 0.0675,100.499241 -10.65082,10.50326 -0.16159,56.83543"
         id="path42"
         sodipodi:nodetypes="cccccc" /><circle
         style="fill:none;fill-opacity:1;stroke:#ffcc00;stroke-width:2.87721;stroke-linecap:square;stroke-dasharray:none"
         id="circle43"
         cx="-259.29166"
         cy="100.54166"
         r="3.8530638" /><circle
         style="fill:none;fill-opacity:1;stroke:#ffcc00;stroke-width:2.87721;stroke-linecap:square;stroke-dasharray:none"
         id="circle44"
         cx="-259.29166"
         cy="195.79166"
         r="3.8530638" /><path
         style="fill:none;stroke:#ffcc00;stroke-width:4.23333;stroke-linecap:butt;stroke-linejoin:miter;stroke-dasharray:none;stroke-opacity:1"
         d="M -259.29166,193.14583 V 103.1875"
         id="path44" /><circle
         style="fill:none;fill-opacity:1;stroke:#ffcc00;stroke-width:2.87721;stroke-linecap:square;stroke-dasharray:none"
         id="circle46"
         cx="-248.70833"
         cy="230.1875"
         r="3.8530638" /><path
         style="fill:none;stroke:#ffcc00;stroke-width:4.23333;stroke-linecap:butt;stroke-linejoin:miter;stroke-dasharray:none;stroke-opacity:1"
         d="m -246.01758,216.73652 7.89259,8.15931 v 42.33333"
         id="path46"
         sodipodi:nodetypes="ccc" /><path
         style="fill:none;stroke:#ffcc00;stroke-width:4.23333;stroke-linecap:butt;stroke-linejoin:miter;stroke-dasharray:none;stroke-opacity:1"
         d="m -248.70833,232.83333 -0.14492,27.92844"
         id="path47"
         sodipodi:nodetypes="cc" /><circle
         style="fill:none;fill-opacity:1;stroke:#ffcc00;stroke-width:2.87721;stroke-linecap:square;stroke-dasharray:none"
         id="circle45"
         cx="-248.70833"
         cy="214.3125"
         r="3.8530638" /><circle
         style="fill:none;fill-opacity:1;stroke:#ffcc00;stroke-width:2.87721;stroke-linecap:square;stroke-dasharray:none"
         id="circle47"
         cx="-227.10321"
         cy="263.21579"
         r="3.8530638" /><circle
         style="fill:none;fill-opacity:1;stroke:#ffcc00;stroke-width:2.87721;stroke-linecap:square;stroke-dasharray:none"
         id="circle48"
         cx="-238.125"
         cy="271.3136"
         r="3.8530638" /><circle
         style="fill:none;fill-opacity:1;stroke:#ffcc00;stroke-width:2.87721;stroke-linecap:square;stroke-dasharray:none"
         id="circle49"
         cx="-259.29166"
         cy="269.875"
         r="3.8530638" /><circle
         style="fill:none;fill-opacity:1;stroke:#ffcc00;stroke-width:2.87721;stroke-linecap:square;stroke-dasharray:none"
         id="circle50"
         cx="-248.70833"
         cy="263.3761"
         r="3.8530638" /></g></g><g
     inkscape:groupmode="layer"
     id="layer3"
     inkscape:label="Scroll"
     style="display:inline"
     transform="translate(-35.16404,-16.088244)"><g
       id="g21"
       style="stroke-width:1.5875;stroke-dasharray:none"
       transform="rotate(1.4870136,-347.21789,1003.3687)"><path
         style="display:inline;fill:none;fill-opacity:1;stroke:#000000;stroke-width:1.5875;stroke-linecap:square;stroke-dasharray:none"
         id="path18"
         sodipodi:type="arc"
         sodipodi:cx="33.265785"
         sodipodi:cy="14.625319"
         sodipodi:rx="16.767109"
         sodipodi:ry="5.9389462"
         sodipodi:start="3.0624749"
         sodipodi:end="0.058160034"
         sodipodi:open="true"
         sodipodi:arc-type="arc"
         d="m 16.551127,15.094705 a 16.767109,5.9389462 0 0 1 7.851468,-5.5107646 16.767109,5.9389462 0 0 1 17.426164,-0.064682 16.767109,5.9389462 0 0 1 8.175785,5.4512745" /><path
         style="display:inline;fill:none;stroke:#000000;stroke-width:1.5875;stroke-linecap:butt;stroke-linejoin:miter;stroke-dasharray:none;stroke-opacity:1"
         d="m 16.498676,14.625319 3.49487,358.626301"
         id="path19"
         sodipodi:nodetypes="cc" /><path
         style="display:inline;fill:none;stroke:#000000;stroke-width:1.5875;stroke-linecap:butt;stroke-linejoin:miter;stroke-dasharray:none;stroke-opacity:1"
         d="M 50.032894,14.625319 77.812378,373.25162"
         id="path20"
         sodipodi:nodetypes="cc" /><path
         style="display:inline;fill:none;stroke:#000000;stroke-width:1.5875;stroke-linecap:butt;stroke-linejoin:miter;stroke-dasharray:none;stroke-opacity:1"
         d="M 41.482235,379.27745 40.5889,367.58937"
         id="path21"
         sodipodi:nodetypes="cc" /><ellipse
         style="display:inline;fill:none;fill-opacity:1;stroke:#000000;stroke-width:1.5875;stroke-linecap:square;stroke-dasharray:none"
         id="ellipse21"
         cx="48.902962"
         cy="373.25162"
         rx="29.172962"
         ry="5.965899" /></g><g
       id="g36"
       style="stroke-width:1.5875;stroke-dasharray:none"
       transform="matrix(0.99966323,-0.02595037,-0.02595037,-0.99966323,382.55923,397.28954)"><path
         style="display:inline;fill:none;fill-opacity:1;stroke:#000000;stroke-width:1.5875;stroke-linecap:square;stroke-dasharray:none"
         id="path31"
         sodipodi:type="arc"
         sodipodi:cx="33.265785"
         sodipodi:cy="14.625319"
         sodipodi:rx="16.767109"
         sodipodi:ry="5.9389462"
         sodipodi:start="3.0624749"
         sodipodi:end="0.058160034"
         sodipodi:open="true"
         sodipodi:arc-type="arc"
         d="m 16.551127,15.094705 a 16.767109,5.9389462 0 0 1 7.851468,-5.5107646 16.767109,5.9389462 0 0 1 17.426164,-0.064682 16.767109,5.9389462 0 0 1 8.175785,5.4512745" /><path
         style="display:inline;fill:none;stroke:#000000;stroke-width:1.5875;stroke-linecap:butt;stroke-linejoin:miter;stroke-dasharray:none;stroke-opacity:1"
         d="m 16.498676,14.625319 3.49487,358.626301"
         id="path32"
         sodipodi:nodetypes="cc" /><path
         style="display:inline;fill:none;stroke:#000000;stroke-width:1.5875;stroke-linecap:butt;stroke-linejoin:miter;stroke-dasharray:none;stroke-opacity:1"
         d="M 50.032894,14.625319 77.812378,373.25162"
         id="path33"
         sodipodi:nodetypes="cc" /><path
         style="display:inline;fill:none;stroke:#000000;stroke-width:1.5875;stroke-linecap:butt;stroke-linejoin:miter;stroke-dasharray:none;stroke-opacity:1"
         d="M 41.482235,379.27745 40.5889,367.58937"
         id="path36"
         sodipodi:nodetypes="cc" /><ellipse
         style="display:inline;fill:none;fill-opacity:1;stroke:#000000;stroke-width:1.5875;stroke-linecap:square;stroke-dasharray:none"
         id="ellipse36"
         cx="48.902962"
         cy="373.25162"
         rx="29.172962"
         ry="5.965899" /></g></g><g
     inkscape:groupmode="layer"
     id="layer5"
     inkscape:label="Shade2"
     style="display:inline"
     transform="translate(-35.16404,-16.088244)"><path
       id="path41"
       style="display:inline;fill:url(#linearGradient3);stroke:#000000;stroke-width:1.32292;stroke-dasharray:none"
       d="m 55.738199,18.921325 a 16.767109,5.9389462 1.4870136 0 0 -5.671488,0.640788 16.767109,5.9389462 1.4870136 0 0 -7.99176,5.305103 l -0.04031,-0.470256 -5.800679,357.8288 a 29.172962,5.965899 1.4870136 0 1 29.042154,-4.44624 29.172962,5.965899 1.4870136 0 1 28.699023,5.82342 L 75.557144,25.267191 l -0.03721,0.344165 a 16.767109,5.9389462 1.4870136 0 0 -8.031551,-5.66167 16.767109,5.9389462 1.4870136 0 0 -11.750187,-1.028361 z" /><path
       id="path5"
       style="display:inline;fill:url(#linearGradient43);stroke:#000000;stroke-width:1.32292;stroke-dasharray:none"
       d="m 55.738199,18.921325 a 16.767109,5.9389462 1.4870136 0 0 -5.671488,0.640788 16.767109,5.9389462 1.4870136 0 0 -7.99176,5.305103 l -0.04031,-0.470256 -5.800679,357.8288 a 29.172962,5.965899 1.4870136 0 1 29.042154,-4.44624 29.172962,5.965899 1.4870136 0 1 28.699023,5.82342 L 75.557144,25.267191 l -0.03721,0.344165 a 16.767109,5.9389462 1.4870136 0 0 -8.031551,-5.66167 16.767109,5.9389462 1.4870136 0 0 -11.750187,-1.028361 z" /></g><g
     inkscape:groupmode="layer"
     id="layer4"
     inkscape:label="Shade1"
     style="display:inline"
     transform="translate(-35.16404,-16.088244)"><path
       style="display:inline;fill:#c18e60;fill-opacity:1;stroke:#000000;stroke-width:1.5875;stroke-linecap:square;stroke-dasharray:none"
       id="ellipse21-8"
       transform="rotate(1.4870136)"
       d="m 66.75233,376.20511 a 29.172962,5.965899 0 0 1 31.860299,2.19931 29.172962,5.965899 0 0 1 0.564713,6.87567 29.172962,5.965899 0 0 1 -31.481162,2.41688 z"
       sodipodi:type="arc"
       sodipodi:arc-type="chord"
       sodipodi:open="true"
       sodipodi:start="4.4237022"
       sodipodi:end="1.8258941"
       sodipodi:ry="5.965899"
       sodipodi:rx="29.172962"
       sodipodi:cy="381.92413"
       sodipodi:cx="75.057686" /><path
       id="path21-6"
       style="display:inline;fill:#fee2bb;fill-opacity:1;stroke:#000000;stroke-width:1.5875;stroke-linecap:butt;stroke-linejoin:miter;stroke-dasharray:none;stroke-opacity:1"
       d="M 57.546735,389.57453 56.957011,377.8672 m 0.802562,11.46754 a 29.172962,5.965899 1.4870136 0 1 -21.796804,-6.20641 29.172962,5.965899 1.4870136 0 1 20.758896,-5.3089" /></g><g
     inkscape:groupmode="layer"
     id="layer2"
     inkscape:label="Shade4"
     transform="translate(-35.16404,-16.088244)"><path
       id="path5-8"
       style="display:inline;fill:url(#linearGradient2);fill-opacity:1;stroke:#000000;stroke-width:1.32292;stroke-dasharray:none"
       d="m 412.3992,387.27131 a 5.9389462,16.767109 88.512986 0 1 -5.67149,-0.64079 5.9389462,16.767109 88.512986 0 1 -7.99176,-5.3051 l -0.0403,0.47025 -5.80068,-357.828786 a 5.965899,29.172962 88.512986 0 0 29.04215,4.44624 5.965899,29.172962 88.512986 0 0 28.69903,-5.82342 l -18.418,358.335736 -0.0372,-0.34416 a 5.9389462,16.767109 88.512986 0 1 -8.03155,5.66167 5.9389462,16.767109 88.512986 0 1 -11.75019,1.02836 z" /></g><g
     inkscape:groupmode="layer"
     id="layer7"
     inkscape:label="Shade5"
     transform="translate(-35.16404,-16.088244)"><path
       style="display:inline;fill:#c18e60;fill-opacity:1;stroke:#000000;stroke-width:1.5875;stroke-linecap:square;stroke-dasharray:none"
       id="ellipse21-8-8"
       transform="matrix(0.99966323,-0.02595037,-0.02595037,-0.99966323,0,0)"
       d="m 412.71762,-39.554661 a 29.172962,5.965899 0 0 1 31.8603,2.199308 29.172962,5.965899 0 0 1 0.56472,6.875672 29.172962,5.965899 0 0 1 -31.48117,2.416875 z"
       sodipodi:type="arc"
       sodipodi:arc-type="chord"
       sodipodi:open="true"
       sodipodi:start="4.4237022"
       sodipodi:end="1.8258941"
       sodipodi:ry="5.965899"
       sodipodi:rx="29.172962"
       sodipodi:cy="-33.83564"
       sodipodi:cx="421.02298" /><path
       id="path21-6-0"
       style="display:inline;fill:#fee2bb;fill-opacity:1;stroke:#000000;stroke-width:1.5875;stroke-linecap:butt;stroke-linejoin:miter;stroke-dasharray:none;stroke-opacity:1"
       d="m 414.18465,17.067285 -0.58973,11.70733 m 0.80257,-11.46754 a 5.965899,29.172962 88.512986 0 0 -21.79681,6.20641 5.965899,29.172962 88.512986 0 0 20.7589,5.3089" /></g></svg>
